<?xml version="1.0" encoding="UTF-8" standalone="no"?>
<!DOCTYPE svg PUBLIC "-//W3C//DTD SVG 1.1//EN"
 "http://www.w3.org/Graphics/SVG/1.1/DTD/svg11.dtd">
<!-- Generated by graphviz version 2.43.0 (0)
 -->
<!-- Title: G Pages: 1 -->
<svg width="919pt" height="710pt"
 viewBox="0.00 0.00 919.00 710.00" xmlns="http://www.w3.org/2000/svg" xmlns:xlink="http://www.w3.org/1999/xlink">
<g id="graph0" class="graph" transform="scale(1 1) rotate(0) translate(4 706)">
<title>G</title>
<polygon fill="white" stroke="transparent" points="-4,4 -4,-706 915,-706 915,4 -4,4"/>
<g id="clust1" class="cluster">
<title>cluster_root</title>
<g id="a_clust1"><a xlink:title="eventq_index=0&#10;full_system=false&#10;sim_quantum=0&#10;time_sync_enable=false&#10;time_sync_period=100000000000&#10;time_sync_spin_threshold=100000000">
<path fill="#bab6ae" stroke="#000000" d="M20,-8C20,-8 891,-8 891,-8 897,-8 903,-14 903,-20 903,-20 903,-682 903,-682 903,-688 897,-694 891,-694 891,-694 20,-694 20,-694 14,-694 8,-688 8,-682 8,-682 8,-20 8,-20 8,-14 14,-8 20,-8"/>
<text text-anchor="middle" x="455.5" y="-678.8" font-family="Arial" font-size="14.00" fill="#000000">root </text>
<text text-anchor="middle" x="455.5" y="-663.8" font-family="Arial" font-size="14.00" fill="#000000">: Root</text>
</a>
</g>
</g>
<g id="clust2" class="cluster">
<title>cluster_system</title>
<g id="a_clust2"><a xlink:title="auto_unlink_shared_backstore=false&#10;cache_line_size=64&#10;eventq_index=0&#10;exit_on_work_items=false&#10;init_param=0&#10;m5ops_base=0&#10;mem_mode=timing&#10;mem_ranges=0:16777216 16777216:33554432 33554432:50331648&#10;memories=system.mem_ctrl.dram system.mem_ctrl2.dram system.mem_ctrl3.dram&#10;mmap_using_noreserve=false&#10;multi_thread=false&#10;&#10;um_work_ids=16&#10;&#13;eadfile=&#10;&#13;edirect_paths=&#10;shadow_rom_ranges=&#10;shared_backstore=&#10;symbolfile=&#10;thermal_components=&#10;thermal_model=Null&#10;work_begin_ckpt_count=0&#10;work_begin_cpu_id_exit=&#45;1&#10;work_begin_exit_count=0&#10;work_cpus_ckpt_count=0&#10;work_end_ckpt_count=0&#10;work_end_exit_count=0&#10;work_item_id=&#45;1&#10;workload=system.workload">
<path fill="#e4e7eb" stroke="#000000" d="M28,-16C28,-16 883,-16 883,-16 889,-16 895,-22 895,-28 895,-28 895,-636 895,-636 895,-642 889,-648 883,-648 883,-648 28,-648 28,-648 22,-648 16,-642 16,-636 16,-636 16,-28 16,-28 16,-22 22,-16 28,-16"/>
<text text-anchor="middle" x="455.5" y="-632.8" font-family="Arial" font-size="14.00" fill="#000000">system </text>
<text text-anchor="middle" x="455.5" y="-617.8" font-family="Arial" font-size="14.00" fill="#000000">: System</text>
</a>
</g>
</g>
<g id="clust6" class="cluster">
<title>cluster_system_cpu</title>
<g id="a_clust6"><a xlink:title="branchPred=Null&#10;checker=Null&#10;clk_domain=system.clk_domain&#10;cpu_id=&#45;1&#10;decoder=system.cpu.decoder&#10;do_checkpoint_insts=true&#10;do_statistics_insts=true&#10;eventq_index=0&#10;function_trace=false&#10;function_trace_start=0&#10;interrupts=system.cpu.interrupts&#10;isa=system.cpu.isa&#10;max_insts_all_threads=0&#10;max_insts_any_thread=0&#10;mmu=system.cpu.mmu&#10;&#10;umThreads=1&#10;power_gating_on_idle=false&#10;power_model=&#10;power_state=system.cpu.power_state&#10;progress_interval=0&#10;pwr_gating_latency=300&#10;simpoint_start_insts=&#10;socket_id=0&#10;switched_out=false&#10;syscallRetryLatency=10000&#10;system=system&#10;tracer=system.cpu.tracer&#10;workload=system.cpu.workload">
<path fill="#bbc6d9" stroke="#000000" d="M36,-276C36,-276 536,-276 536,-276 542,-276 548,-282 548,-288 548,-288 548,-408 548,-408 548,-414 542,-420 536,-420 536,-420 36,-420 36,-420 30,-420 24,-414 24,-408 24,-408 24,-288 24,-288 24,-282 30,-276 36,-276"/>
<text text-anchor="middle" x="286" y="-404.8" font-family="Arial" font-size="14.00" fill="#000000">cpu </text>
<text text-anchor="middle" x="286" y="-389.8" font-family="Arial" font-size="14.00" fill="#000000">: X86TimingSimpleCPU</text>
</a>
</g>
</g>
<g id="clust17" class="cluster">
<title>cluster_system_cpu_interrupts</title>
<g id="a_clust17"><a xlink:title="clk_domain=system.cpu.interrupts.clk_domain&#10;eventq_index=0&#10;int_latency=1000&#10;pio_latency=100000&#10;system=system">
<path fill="#bab6ae" stroke="#000000" d="M250,-284C250,-284 528,-284 528,-284 534,-284 540,-290 540,-296 540,-296 540,-362 540,-362 540,-368 534,-374 528,-374 528,-374 250,-374 250,-374 244,-374 238,-368 238,-362 238,-362 238,-296 238,-296 238,-290 244,-284 250,-284"/>
<text text-anchor="middle" x="389" y="-358.8" font-family="Arial" font-size="14.00" fill="#000000">interrupts </text>
<text text-anchor="middle" x="389" y="-343.8" font-family="Arial" font-size="14.00" fill="#000000">: X86LocalApic</text>
</a>
</g>
</g>
<g id="clust22" class="cluster">
<title>cluster_system_membus</title>
<g id="a_clust22"><a xlink:title="clk_domain=system.clk_domain&#10;eventq_index=0&#10;forward_latency=4&#10;frontend_latency=3&#10;header_latency=1&#10;max_outstanding_snoops=512&#10;max_routing_table_size=512&#10;point_of_coherency=true&#10;point_of_unification=true&#10;power_model=&#10;power_state=system.membus.power_state&#10;&#13;esponse_latency=2&#10;snoop_filter=system.membus.snoop_filter&#10;snoop_response_latency=4&#10;system=system&#10;use_default_range=false&#10;width=16">
<path fill="#6f798c" stroke="#000000" d="M225,-428C225,-428 461,-428 461,-428 467,-428 473,-434 473,-440 473,-440 473,-506 473,-506 473,-512 467,-518 461,-518 461,-518 225,-518 225,-518 219,-518 213,-512 213,-506 213,-506 213,-440 213,-440 213,-434 219,-428 225,-428"/>
<text text-anchor="middle" x="343" y="-502.8" font-family="Arial" font-size="14.00" fill="#000000">membus </text>
<text text-anchor="middle" x="343" y="-487.8" font-family="Arial" font-size="14.00" fill="#000000">: SystemXBar</text>
</a>
</g>
</g>
<g id="clust25" class="cluster">
<title>cluster_system_journal</title>
<g id="a_clust25"><a xlink:title="clk_domain=system.clk_domain&#10;eventq_index=0&#10;&#10;atency=100&#10;power_model=&#10;power_state=system.journal.power_state">
<path fill="#bab6ae" stroke="#000000" d="M568,-284C568,-284 790,-284 790,-284 796,-284 802,-290 802,-296 802,-296 802,-362 802,-362 802,-368 796,-374 790,-374 790,-374 568,-374 568,-374 562,-374 556,-368 556,-362 556,-362 556,-296 556,-296 556,-290 562,-284 568,-284"/>
<text text-anchor="middle" x="679" y="-358.8" font-family="Arial" font-size="14.00" fill="#000000">journal </text>
<text text-anchor="middle" x="679" y="-343.8" font-family="Arial" font-size="14.00" fill="#000000">: WALJournal</text>
</a>
</g>
</g>
<g id="clust27" class="cluster">
<title>cluster_system_cxlswitch</title>
<g id="a_clust27"><a xlink:title="clk_domain=system.clk_domain&#10;eventq_index=0&#10;&#10;atency=100&#10;power_model=&#10;power_state=system.cxlswitch.power_state">
<path fill="#bab6ae" stroke="#000000" d="M332,-154C332,-154 689,-154 689,-154 695,-154 701,-160 701,-166 701,-166 701,-232 701,-232 701,-238 695,-244 689,-244 689,-244 332,-244 332,-244 326,-244 320,-238 320,-232 320,-232 320,-166 320,-166 320,-160 326,-154 332,-154"/>
<text text-anchor="middle" x="510.5" y="-228.8" font-family="Arial" font-size="14.00" fill="#000000">cxlswitch </text>
<text text-anchor="middle" x="510.5" y="-213.8" font-family="Arial" font-size="14.00" fill="#000000">: CXLSwitch</text>
</a>
</g>
</g>
<g id="clust29" class="cluster">
<title>cluster_system_mem_ctrl</title>
<g id="a_clust29"><a xlink:title="clk_domain=system.clk_domain&#10;command_window=10000&#10;disable_sanity_check=false&#10;dram=system.mem_ctrl.dram&#10;eventq_index=0&#10;mem_sched_policy=frfcfs&#10;min_reads_per_switch=16&#10;min_writes_per_switch=16&#10;power_model=&#10;power_state=system.mem_ctrl.power_state&#10;qos_policy=Null&#10;qos_priorities=1&#10;qos_priority_escalation=false&#10;qos_q_policy=fifo&#10;qos_requestors= &#160;&#160;&#160;&#160;&#160;&#160;&#160;&#160;&#160;&#160;&#160;&#160;&#160;&#160;&#10;qos_syncro_scheduler=false&#10;qos_turnaround_policy=Null&#10;static_backend_latency=10000&#10;static_frontend_latency=10000&#10;system=system&#10;write_high_thresh_perc=85&#10;write_low_thresh_perc=50">
<path fill="#bab6ae" stroke="#000000" d="M822,-284C822,-284 875,-284 875,-284 881,-284 887,-290 887,-296 887,-296 887,-362 887,-362 887,-368 881,-374 875,-374 875,-374 822,-374 822,-374 816,-374 810,-368 810,-362 810,-362 810,-296 810,-296 810,-290 816,-284 822,-284"/>
<text text-anchor="middle" x="848.5" y="-358.8" font-family="Arial" font-size="14.00" fill="#000000">mem_ctrl </text>
<text text-anchor="middle" x="848.5" y="-343.8" font-family="Arial" font-size="14.00" fill="#000000">: MemCtrl</text>
</a>
</g>
</g>
<g id="clust33" class="cluster">
<title>cluster_system_cxlswitch2</title>
<g id="a_clust33"><a xlink:title="clk_domain=system.clk_domain&#10;eventq_index=0&#10;&#10;atency=100&#10;power_model=&#10;power_state=system.cxlswitch2.power_state">
<path fill="#bab6ae" stroke="#000000" d="M518,-24C518,-24 875,-24 875,-24 881,-24 887,-30 887,-36 887,-36 887,-102 887,-102 887,-108 881,-114 875,-114 875,-114 518,-114 518,-114 512,-114 506,-108 506,-102 506,-102 506,-36 506,-36 506,-30 512,-24 518,-24"/>
<text text-anchor="middle" x="696.5" y="-98.8" font-family="Arial" font-size="14.00" fill="#000000">cxlswitch2 </text>
<text text-anchor="middle" x="696.5" y="-83.8" font-family="Arial" font-size="14.00" fill="#000000">: CXLSwitch</text>
</a>
</g>
</g>
<g id="clust35" class="cluster">
<title>cluster_system_mem_ctrl2</title>
<g id="a_clust35"><a xlink:title="clk_domain=system.clk_domain&#10;command_window=10000&#10;disable_sanity_check=false&#10;dram=system.mem_ctrl2.dram&#10;eventq_index=0&#10;mem_sched_policy=frfcfs&#10;min_reads_per_switch=16&#10;min_writes_per_switch=16&#10;power_model=&#10;power_state=system.mem_ctrl2.power_state&#10;qos_policy=Null&#10;qos_priorities=1&#10;qos_priority_escalation=false&#10;qos_q_policy=fifo&#10;qos_requestors= &#160;&#160;&#160;&#160;&#160;&#160;&#160;&#160;&#160;&#160;&#160;&#160;&#160;&#160;&#10;qos_syncro_scheduler=false&#10;qos_turnaround_policy=Null&#10;static_backend_latency=10000&#10;static_frontend_latency=10000&#10;system=system&#10;write_high_thresh_perc=85&#10;write_low_thresh_perc=50">
<path fill="#bab6ae" stroke="#000000" d="M814,-154C814,-154 875,-154 875,-154 881,-154 887,-160 887,-166 887,-166 887,-232 887,-232 887,-238 881,-244 875,-244 875,-244 814,-244 814,-244 808,-244 802,-238 802,-232 802,-232 802,-166 802,-166 802,-160 808,-154 814,-154"/>
<text text-anchor="middle" x="844.5" y="-228.8" font-family="Arial" font-size="14.00" fill="#000000">mem_ctrl2 </text>
<text text-anchor="middle" x="844.5" y="-213.8" font-family="Arial" font-size="14.00" fill="#000000">: MemCtrl</text>
</a>
</g>
</g>
<g id="clust39" class="cluster">
<title>cluster_system_mem_ctrl3</title>
<g id="a_clust39"><a xlink:title="clk_domain=system.clk_domain&#10;command_window=10000&#10;disable_sanity_check=false&#10;dram=system.mem_ctrl3.dram&#10;eventq_index=0&#10;mem_sched_policy=frfcfs&#10;min_reads_per_switch=16&#10;min_writes_per_switch=16&#10;power_model=&#10;power_state=system.mem_ctrl3.power_state&#10;qos_policy=Null&#10;qos_priorities=1&#10;qos_priority_escalation=false&#10;qos_q_policy=fifo&#10;qos_requestors= &#160;&#160;&#160;&#160;&#160;&#160;&#160;&#160;&#160;&#160;&#160;&#160;&#160;&#160;&#10;qos_syncro_scheduler=false&#10;qos_turnaround_policy=Null&#10;static_backend_latency=10000&#10;static_frontend_latency=10000&#10;system=system&#10;write_high_thresh_perc=85&#10;write_low_thresh_perc=50">
<path fill="#bab6ae" stroke="#000000" d="M721,-154C721,-154 782,-154 782,-154 788,-154 794,-160 794,-166 794,-166 794,-232 794,-232 794,-238 788,-244 782,-244 782,-244 721,-244 721,-244 715,-244 709,-238 709,-232 709,-232 709,-166 709,-166 709,-160 715,-154 721,-154"/>
<text text-anchor="middle" x="751.5" y="-228.8" font-family="Arial" font-size="14.00" fill="#000000">mem_ctrl3 </text>
<text text-anchor="middle" x="751.5" y="-213.8" font-family="Arial" font-size="14.00" fill="#000000">: MemCtrl</text>
</a>
</g>
</g>
<!-- system_system_port -->
<g id="node1" class="node">
<title>system_system_port</title>
<path fill="#b6b8bc" stroke="#000000" d="M308.5,-602C308.5,-602 241.5,-602 241.5,-602 235.5,-602 229.5,-596 229.5,-590 229.5,-590 229.5,-578 229.5,-578 229.5,-572 235.5,-566 241.5,-566 241.5,-566 308.5,-566 308.5,-566 314.5,-566 320.5,-572 320.5,-578 320.5,-578 320.5,-590 320.5,-590 320.5,-596 314.5,-602 308.5,-602"/>
<text text-anchor="middle" x="275" y="-580.3" font-family="Arial" font-size="14.00" fill="#000000">system_port</text>
</g>
<!-- system_membus_cpu_side_ports -->
<g id="node7" class="node">
<title>system_membus_cpu_side_ports</title>
<path fill="#586070" stroke="#000000" d="M317,-472C317,-472 233,-472 233,-472 227,-472 221,-466 221,-460 221,-460 221,-448 221,-448 221,-442 227,-436 233,-436 233,-436 317,-436 317,-436 323,-436 329,-442 329,-448 329,-448 329,-460 329,-460 329,-466 323,-472 317,-472"/>
<text text-anchor="middle" x="275" y="-450.3" font-family="Arial" font-size="14.00" fill="#000000">cpu_side_ports</text>
</g>
<!-- system_system_port&#45;&gt;system_membus_cpu_side_ports -->
<g id="edge1" class="edge">
<title>system_system_port&#45;&gt;system_membus_cpu_side_ports</title>
<path fill="none" stroke="black" d="M275,-565.74C275,-544.36 275,-507.69 275,-482.44"/>
<polygon fill="black" stroke="black" points="278.5,-482.4 275,-472.4 271.5,-482.4 278.5,-482.4"/>
</g>
<!-- system_cpu_icache_port -->
<g id="node2" class="node">
<title>system_cpu_icache_port</title>
<path fill="#959ead" stroke="#000000" d="M216,-328C216,-328 154,-328 154,-328 148,-328 142,-322 142,-316 142,-316 142,-304 142,-304 142,-298 148,-292 154,-292 154,-292 216,-292 216,-292 222,-292 228,-298 228,-304 228,-304 228,-316 228,-316 228,-322 222,-328 216,-328"/>
<text text-anchor="middle" x="185" y="-306.3" font-family="Arial" font-size="14.00" fill="#000000">icache_port</text>
</g>
<!-- system_cpu_dcache_port -->
<g id="node3" class="node">
<title>system_cpu_dcache_port</title>
<path fill="#959ead" stroke="#000000" d="M111.5,-328C111.5,-328 44.5,-328 44.5,-328 38.5,-328 32.5,-322 32.5,-316 32.5,-316 32.5,-304 32.5,-304 32.5,-298 38.5,-292 44.5,-292 44.5,-292 111.5,-292 111.5,-292 117.5,-292 123.5,-298 123.5,-304 123.5,-304 123.5,-316 123.5,-316 123.5,-322 117.5,-328 111.5,-328"/>
<text text-anchor="middle" x="78" y="-306.3" font-family="Arial" font-size="14.00" fill="#000000">dcache_port</text>
</g>
<!-- system_cpu_interrupts_int_requestor -->
<g id="node4" class="node">
<title>system_cpu_interrupts_int_requestor</title>
<path fill="#94918b" stroke="#000000" d="M329.5,-328C329.5,-328 258.5,-328 258.5,-328 252.5,-328 246.5,-322 246.5,-316 246.5,-316 246.5,-304 246.5,-304 246.5,-298 252.5,-292 258.5,-292 258.5,-292 329.5,-292 329.5,-292 335.5,-292 341.5,-298 341.5,-304 341.5,-304 341.5,-316 341.5,-316 341.5,-322 335.5,-328 329.5,-328"/>
<text text-anchor="middle" x="294" y="-306.3" font-family="Arial" font-size="14.00" fill="#000000">int_requestor</text>
</g>
<!-- system_cpu_interrupts_int_responder -->
<g id="node5" class="node">
<title>system_cpu_interrupts_int_responder</title>
<path fill="#94918b" stroke="#000000" d="M519.5,-328C519.5,-328 444.5,-328 444.5,-328 438.5,-328 432.5,-322 432.5,-316 432.5,-316 432.5,-304 432.5,-304 432.5,-298 438.5,-292 444.5,-292 444.5,-292 519.5,-292 519.5,-292 525.5,-292 531.5,-298 531.5,-304 531.5,-304 531.5,-316 531.5,-316 531.5,-322 525.5,-328 519.5,-328"/>
<text text-anchor="middle" x="482" y="-306.3" font-family="Arial" font-size="14.00" fill="#000000">int_responder</text>
</g>
<!-- system_cpu_interrupts_pio -->
<g id="node6" class="node">
<title>system_cpu_interrupts_pio</title>
<path fill="#94918b" stroke="#000000" d="M402,-328C402,-328 372,-328 372,-328 366,-328 360,-322 360,-316 360,-316 360,-304 360,-304 360,-298 366,-292 372,-292 372,-292 402,-292 402,-292 408,-292 414,-298 414,-304 414,-304 414,-316 414,-316 414,-322 408,-328 402,-328"/>
<text text-anchor="middle" x="387" y="-306.3" font-family="Arial" font-size="14.00" fill="#000000">pio</text>
</g>
<!-- system_membus_cpu_side_ports&#45;&gt;system_cpu_icache_port -->
<g id="edge2" class="edge">
<title>system_membus_cpu_side_ports&#45;&gt;system_cpu_icache_port</title>
<path fill="none" stroke="black" d="M242.22,-429.09C239.25,-426.21 236.44,-423.16 234,-420 211.8,-391.27 197.06,-350.88 189.95,-328.2"/>
<polygon fill="black" stroke="black" points="240.05,-431.83 249.85,-435.86 244.69,-426.6 240.05,-431.83"/>
</g>
<!-- system_membus_cpu_side_ports&#45;&gt;system_cpu_dcache_port -->
<g id="edge3" class="edge">
<title>system_membus_cpu_side_ports&#45;&gt;system_cpu_dcache_port</title>
<path fill="none" stroke="black" d="M210.77,-449.87C184.4,-445.77 154.97,-437.26 133,-420 103.16,-396.56 88.16,-352.61 81.84,-328.29"/>
<polygon fill="black" stroke="black" points="210.32,-453.34 220.7,-451.23 211.27,-446.41 210.32,-453.34"/>
</g>
<!-- system_membus_cpu_side_ports&#45;&gt;system_cpu_interrupts_int_requestor -->
<g id="edge4" class="edge">
<title>system_membus_cpu_side_ports&#45;&gt;system_cpu_interrupts_int_requestor</title>
<path fill="none" stroke="black" d="M278.66,-425.68C282.51,-396.89 288.46,-352.42 291.7,-328.19"/>
<polygon fill="black" stroke="black" points="275.15,-425.5 277.29,-435.87 282.09,-426.42 275.15,-425.5"/>
</g>
<!-- system_membus_mem_side_ports -->
<g id="node8" class="node">
<title>system_membus_mem_side_ports</title>
<path fill="#586070" stroke="#000000" d="M453,-472C453,-472 359,-472 359,-472 353,-472 347,-466 347,-460 347,-460 347,-448 347,-448 347,-442 353,-436 359,-436 359,-436 453,-436 453,-436 459,-436 465,-442 465,-448 465,-448 465,-460 465,-460 465,-466 459,-472 453,-472"/>
<text text-anchor="middle" x="406" y="-450.3" font-family="Arial" font-size="14.00" fill="#000000">mem_side_ports</text>
</g>
<!-- system_membus_mem_side_ports&#45;&gt;system_cpu_interrupts_int_responder -->
<g id="edge6" class="edge">
<title>system_membus_mem_side_ports&#45;&gt;system_cpu_interrupts_int_responder</title>
<path fill="none" stroke="black" d="M415.17,-435.87C428.29,-411.35 452.55,-366.03 467.95,-337.26"/>
<polygon fill="black" stroke="black" points="471.17,-338.66 472.8,-328.19 465,-335.35 471.17,-338.66"/>
</g>
<!-- system_membus_mem_side_ports&#45;&gt;system_cpu_interrupts_pio -->
<g id="edge5" class="edge">
<title>system_membus_mem_side_ports&#45;&gt;system_cpu_interrupts_pio</title>
<path fill="none" stroke="black" d="M403.71,-435.87C400.47,-411.67 394.52,-367.21 390.67,-338.39"/>
<polygon fill="black" stroke="black" points="394.1,-337.64 389.3,-328.19 387.16,-338.57 394.1,-337.64"/>
</g>
<!-- system_journal_cpu_side_port -->
<g id="node9" class="node">
<title>system_journal_cpu_side_port</title>
<path fill="#94918b" stroke="#000000" d="M781.5,-328C781.5,-328 704.5,-328 704.5,-328 698.5,-328 692.5,-322 692.5,-316 692.5,-316 692.5,-304 692.5,-304 692.5,-298 698.5,-292 704.5,-292 704.5,-292 781.5,-292 781.5,-292 787.5,-292 793.5,-298 793.5,-304 793.5,-304 793.5,-316 793.5,-316 793.5,-322 787.5,-328 781.5,-328"/>
<text text-anchor="middle" x="743" y="-306.3" font-family="Arial" font-size="14.00" fill="#000000">cpu_side_port</text>
</g>
<!-- system_membus_mem_side_ports&#45;&gt;system_journal_cpu_side_port -->
<g id="edge7" class="edge">
<title>system_membus_mem_side_ports&#45;&gt;system_journal_cpu_side_port</title>
<path fill="none" stroke="black" d="M465.29,-452.25C536.14,-450.28 649.47,-443.44 684,-420 712.16,-400.88 728.05,-363.76 736.08,-338.2"/>
<polygon fill="black" stroke="black" points="739.51,-338.94 738.96,-328.36 732.79,-336.98 739.51,-338.94"/>
</g>
<!-- system_journal_mem_side_port -->
<g id="node10" class="node">
<title>system_journal_mem_side_port</title>
<path fill="#94918b" stroke="#000000" d="M662.5,-328C662.5,-328 575.5,-328 575.5,-328 569.5,-328 563.5,-322 563.5,-316 563.5,-316 563.5,-304 563.5,-304 563.5,-298 569.5,-292 575.5,-292 575.5,-292 662.5,-292 662.5,-292 668.5,-292 674.5,-298 674.5,-304 674.5,-304 674.5,-316 674.5,-316 674.5,-322 668.5,-328 662.5,-328"/>
<text text-anchor="middle" x="619" y="-306.3" font-family="Arial" font-size="14.00" fill="#000000">mem_side_port</text>
</g>
<!-- system_cxlswitch_cpu_side_port -->
<g id="node11" class="node">
<title>system_cxlswitch_cpu_side_port</title>
<path fill="#94918b" stroke="#000000" d="M552.5,-198C552.5,-198 475.5,-198 475.5,-198 469.5,-198 463.5,-192 463.5,-186 463.5,-186 463.5,-174 463.5,-174 463.5,-168 469.5,-162 475.5,-162 475.5,-162 552.5,-162 552.5,-162 558.5,-162 564.5,-168 564.5,-174 564.5,-174 564.5,-186 564.5,-186 564.5,-192 558.5,-198 552.5,-198"/>
<text text-anchor="middle" x="514" y="-176.3" font-family="Arial" font-size="14.00" fill="#000000">cpu_side_port</text>
</g>
<!-- system_journal_mem_side_port&#45;&gt;system_cxlswitch_cpu_side_port -->
<g id="edge8" class="edge">
<title>system_journal_mem_side_port&#45;&gt;system_cxlswitch_cpu_side_port</title>
<path fill="none" stroke="black" d="M604.84,-291.74C586.83,-269.79 555.6,-231.72 534.87,-206.44"/>
<polygon fill="black" stroke="black" points="537.32,-203.91 528.27,-198.4 531.91,-208.35 537.32,-203.91"/>
</g>
<!-- system_cxlswitch_mem_side_port -->
<g id="node12" class="node">
<title>system_cxlswitch_mem_side_port</title>
<path fill="#94918b" stroke="#000000" d="M681.5,-198C681.5,-198 594.5,-198 594.5,-198 588.5,-198 582.5,-192 582.5,-186 582.5,-186 582.5,-174 582.5,-174 582.5,-168 588.5,-162 594.5,-162 594.5,-162 681.5,-162 681.5,-162 687.5,-162 693.5,-168 693.5,-174 693.5,-174 693.5,-186 693.5,-186 693.5,-192 687.5,-198 681.5,-198"/>
<text text-anchor="middle" x="638" y="-176.3" font-family="Arial" font-size="14.00" fill="#000000">mem_side_port</text>
</g>
<!-- system_cxlswitch_switch_side_port -->
<g id="node13" class="node">
<title>system_cxlswitch_switch_side_port</title>
<path fill="#94918b" stroke="#000000" d="M433.5,-198C433.5,-198 340.5,-198 340.5,-198 334.5,-198 328.5,-192 328.5,-186 328.5,-186 328.5,-174 328.5,-174 328.5,-168 334.5,-162 340.5,-162 340.5,-162 433.5,-162 433.5,-162 439.5,-162 445.5,-168 445.5,-174 445.5,-174 445.5,-186 445.5,-186 445.5,-192 439.5,-198 433.5,-198"/>
<text text-anchor="middle" x="387" y="-176.3" font-family="Arial" font-size="14.00" fill="#000000">switch_side_port</text>
</g>
<!-- system_cxlswitch2_cpu_side_port -->
<g id="node15" class="node">
<title>system_cxlswitch2_cpu_side_port</title>
<path fill="#94918b" stroke="#000000" d="M603.5,-68C603.5,-68 526.5,-68 526.5,-68 520.5,-68 514.5,-62 514.5,-56 514.5,-56 514.5,-44 514.5,-44 514.5,-38 520.5,-32 526.5,-32 526.5,-32 603.5,-32 603.5,-32 609.5,-32 615.5,-38 615.5,-44 615.5,-44 615.5,-56 615.5,-56 615.5,-62 609.5,-68 603.5,-68"/>
<text text-anchor="middle" x="565" y="-46.3" font-family="Arial" font-size="14.00" fill="#000000">cpu_side_port</text>
</g>
<!-- system_cxlswitch_switch_side_port&#45;&gt;system_cxlswitch2_cpu_side_port -->
<g id="edge9" class="edge">
<title>system_cxlswitch_switch_side_port&#45;&gt;system_cxlswitch2_cpu_side_port</title>
<path fill="none" stroke="black" d="M411.01,-161.74C442.41,-139.15 497.56,-99.5 532.63,-74.28"/>
<polygon fill="black" stroke="black" points="535.02,-76.87 541.09,-68.19 530.93,-71.19 535.02,-76.87"/>
</g>
<!-- system_mem_ctrl_port -->
<g id="node14" class="node">
<title>system_mem_ctrl_port</title>
<path fill="#94918b" stroke="#000000" d="M860,-328C860,-328 830,-328 830,-328 824,-328 818,-322 818,-316 818,-316 818,-304 818,-304 818,-298 824,-292 830,-292 830,-292 860,-292 860,-292 866,-292 872,-298 872,-304 872,-304 872,-316 872,-316 872,-322 866,-328 860,-328"/>
<text text-anchor="middle" x="845" y="-306.3" font-family="Arial" font-size="14.00" fill="#000000">port</text>
</g>
<!-- system_mem_ctrl_port&#45;&gt;system_cxlswitch_mem_side_port -->
<g id="edge10" class="edge">
<title>system_mem_ctrl_port&#45;&gt;system_cxlswitch_mem_side_port</title>
<path fill="none" stroke="black" d="M820.16,-285.53C815.66,-282.02 810.85,-278.68 806,-276 764.78,-253.24 745.61,-267.83 705,-244 684.34,-231.88 664.89,-212.33 652.32,-198.22"/>
<polygon fill="black" stroke="black" points="817.93,-288.23 827.85,-291.95 822.41,-282.86 817.93,-288.23"/>
</g>
<!-- system_cxlswitch2_mem_side_port -->
<g id="node16" class="node">
<title>system_cxlswitch2_mem_side_port</title>
<path fill="#94918b" stroke="#000000" d="M867.5,-68C867.5,-68 780.5,-68 780.5,-68 774.5,-68 768.5,-62 768.5,-56 768.5,-56 768.5,-44 768.5,-44 768.5,-38 774.5,-32 780.5,-32 780.5,-32 867.5,-32 867.5,-32 873.5,-32 879.5,-38 879.5,-44 879.5,-44 879.5,-56 879.5,-56 879.5,-62 873.5,-68 867.5,-68"/>
<text text-anchor="middle" x="824" y="-46.3" font-family="Arial" font-size="14.00" fill="#000000">mem_side_port</text>
</g>
<!-- system_cxlswitch2_switch_side_port -->
<g id="node17" class="node">
<title>system_cxlswitch2_switch_side_port</title>
<path fill="#94918b" stroke="#000000" d="M738.5,-68C738.5,-68 645.5,-68 645.5,-68 639.5,-68 633.5,-62 633.5,-56 633.5,-56 633.5,-44 633.5,-44 633.5,-38 639.5,-32 645.5,-32 645.5,-32 738.5,-32 738.5,-32 744.5,-32 750.5,-38 750.5,-44 750.5,-44 750.5,-56 750.5,-56 750.5,-62 744.5,-68 738.5,-68"/>
<text text-anchor="middle" x="692" y="-46.3" font-family="Arial" font-size="14.00" fill="#000000">switch_side_port</text>
</g>
<!-- system_mem_ctrl2_port -->
<g id="node18" class="node">
<title>system_mem_ctrl2_port</title>
<path fill="#94918b" stroke="#000000" d="M852,-198C852,-198 822,-198 822,-198 816,-198 810,-192 810,-186 810,-186 810,-174 810,-174 810,-168 816,-162 822,-162 822,-162 852,-162 852,-162 858,-162 864,-168 864,-174 864,-174 864,-186 864,-186 864,-192 858,-198 852,-198"/>
<text text-anchor="middle" x="837" y="-176.3" font-family="Arial" font-size="14.00" fill="#000000">port</text>
</g>
<!-- system_mem_ctrl2_port&#45;&gt;system_cxlswitch2_mem_side_port -->
<g id="edge11" class="edge">
<title>system_mem_ctrl2_port&#45;&gt;system_cxlswitch2_mem_side_port</title>
<path fill="none" stroke="black" d="M834.23,-151.72C831.67,-126.52 827.94,-89.84 825.77,-68.4"/>
<polygon fill="black" stroke="black" points="830.75,-152.14 835.25,-161.74 837.72,-151.43 830.75,-152.14"/>
</g>
<!-- system_mem_ctrl3_port -->
<g id="node19" class="node">
<title>system_mem_ctrl3_port</title>
<path fill="#94918b" stroke="#000000" d="M759,-198C759,-198 729,-198 729,-198 723,-198 717,-192 717,-186 717,-186 717,-174 717,-174 717,-168 723,-162 729,-162 729,-162 759,-162 759,-162 765,-162 771,-168 771,-174 771,-174 771,-186 771,-186 771,-192 765,-198 759,-198"/>
<text text-anchor="middle" x="744" y="-176.3" font-family="Arial" font-size="14.00" fill="#000000">port</text>
</g>
<!-- system_mem_ctrl3_port&#45;&gt;system_cxlswitch2_switch_side_port -->
<g id="edge12" class="edge">
<title>system_mem_ctrl3_port&#45;&gt;system_cxlswitch2_switch_side_port</title>
<path fill="none" stroke="black" d="M733.19,-152.39C722.95,-127.17 707.86,-90.03 699.07,-68.4"/>
<polygon fill="black" stroke="black" points="729.98,-153.79 736.99,-161.74 736.47,-151.16 729.98,-153.79"/>
</g>
</g>
</svg>
