<?xml version="1.0" encoding="UTF-8" standalone="no"?>
<!DOCTYPE svg PUBLIC "-//W3C//DTD SVG 1.1//EN"
 "http://www.w3.org/Graphics/SVG/1.1/DTD/svg11.dtd">
<!-- Generated by graphviz version 2.43.0 (0)
 -->
<!-- Title: G Pages: 1 -->
<svg width="832pt" height="458pt"
 viewBox="0.00 0.00 832.00 458.00" xmlns="http://www.w3.org/2000/svg" xmlns:xlink="http://www.w3.org/1999/xlink">
<g id="graph0" class="graph" transform="scale(1 1) rotate(0) translate(4 454)">
<title>G</title>
<polygon fill="white" stroke="transparent" points="-4,4 -4,-454 828,-454 828,4 -4,4"/>
<g id="clust1" class="cluster">
<title>cluster_root</title>
<g id="a_clust1"><a xlink:title="eventq_index=0&#10;full_system=false&#10;sim_quantum=0&#10;time_sync_enable=false&#10;time_sync_period=100000000000&#10;time_sync_spin_threshold=100000000">
<path fill="#bab6ae" stroke="#000000" d="M20,-8C20,-8 804,-8 804,-8 810,-8 816,-14 816,-20 816,-20 816,-430 816,-430 816,-436 810,-442 804,-442 804,-442 20,-442 20,-442 14,-442 8,-436 8,-430 8,-430 8,-20 8,-20 8,-14 14,-8 20,-8"/>
<text text-anchor="middle" x="412" y="-426.8" font-family="Arial" font-size="14.00" fill="#000000">root </text>
<text text-anchor="middle" x="412" y="-411.8" font-family="Arial" font-size="14.00" fill="#000000">: Root</text>
</a>
</g>
</g>
<g id="clust2" class="cluster">
<title>cluster_system</title>
<g id="a_clust2"><a xlink:title="auto_unlink_shared_backstore=false&#10;cache_line_size=64&#10;eventq_index=0&#10;exit_on_work_items=false&#10;init_param=0&#10;m5ops_base=0&#10;mem_mode=timing&#10;mem_ranges=0:50331648&#10;memories=system.mem_ctrl.dram&#10;mmap_using_noreserve=false&#10;multi_thread=false&#10;&#10;um_work_ids=16&#10;&#13;eadfile=&#10;&#13;edirect_paths=&#10;shadow_rom_ranges=&#10;shared_backstore=&#10;symbolfile=&#10;thermal_components=&#10;thermal_model=Null&#10;work_begin_ckpt_count=0&#10;work_begin_cpu_id_exit=&#45;1&#10;work_begin_exit_count=0&#10;work_cpus_ckpt_count=0&#10;work_end_ckpt_count=0&#10;work_end_exit_count=0&#10;work_item_id=&#45;1&#10;workload=system.workload">
<path fill="#e4e7eb" stroke="#000000" d="M28,-16C28,-16 796,-16 796,-16 802,-16 808,-22 808,-28 808,-28 808,-384 808,-384 808,-390 802,-396 796,-396 796,-396 28,-396 28,-396 22,-396 16,-390 16,-384 16,-384 16,-28 16,-28 16,-22 22,-16 28,-16"/>
<text text-anchor="middle" x="412" y="-380.8" font-family="Arial" font-size="14.00" fill="#000000">system </text>
<text text-anchor="middle" x="412" y="-365.8" font-family="Arial" font-size="14.00" fill="#000000">: System</text>
</a>
</g>
</g>
<g id="clust6" class="cluster">
<title>cluster_system_cpu</title>
<g id="a_clust6"><a xlink:title="branchPred=Null&#10;checker=Null&#10;clk_domain=system.clk_domain&#10;cpu_id=&#45;1&#10;decoder=system.cpu.decoder&#10;do_checkpoint_insts=true&#10;do_statistics_insts=true&#10;eventq_index=0&#10;function_trace=false&#10;function_trace_start=0&#10;interrupts=system.cpu.interrupts&#10;isa=system.cpu.isa&#10;max_insts_all_threads=0&#10;max_insts_any_thread=0&#10;mmu=system.cpu.mmu&#10;&#10;umThreads=1&#10;power_gating_on_idle=false&#10;power_model=&#10;power_state=system.cpu.power_state&#10;progress_interval=0&#10;pwr_gating_latency=300&#10;simpoint_start_insts=&#10;socket_id=0&#10;switched_out=false&#10;syscallRetryLatency=10000&#10;system=system&#10;tracer=system.cpu.tracer&#10;workload=system.cpu.workload">
<path fill="#bbc6d9" stroke="#000000" d="M36,-24C36,-24 534,-24 534,-24 540,-24 546,-30 546,-36 546,-36 546,-156 546,-156 546,-162 540,-168 534,-168 534,-168 36,-168 36,-168 30,-168 24,-162 24,-156 24,-156 24,-36 24,-36 24,-30 30,-24 36,-24"/>
<text text-anchor="middle" x="285" y="-152.8" font-family="Arial" font-size="14.00" fill="#000000">cpu </text>
<text text-anchor="middle" x="285" y="-137.8" font-family="Arial" font-size="14.00" fill="#000000">: X86TimingSimpleCPU</text>
</a>
</g>
</g>
<g id="clust17" class="cluster">
<title>cluster_system_cpu_interrupts</title>
<g id="a_clust17"><a xlink:title="clk_domain=system.cpu.interrupts.clk_domain&#10;eventq_index=0&#10;int_latency=1000&#10;pio_latency=100000&#10;system=system">
<path fill="#bab6ae" stroke="#000000" d="M249,-32C249,-32 526,-32 526,-32 532,-32 538,-38 538,-44 538,-44 538,-110 538,-110 538,-116 532,-122 526,-122 526,-122 249,-122 249,-122 243,-122 237,-116 237,-110 237,-110 237,-44 237,-44 237,-38 243,-32 249,-32"/>
<text text-anchor="middle" x="387.5" y="-106.8" font-family="Arial" font-size="14.00" fill="#000000">interrupts </text>
<text text-anchor="middle" x="387.5" y="-91.8" font-family="Arial" font-size="14.00" fill="#000000">: X86LocalApic</text>
</a>
</g>
</g>
<g id="clust22" class="cluster">
<title>cluster_system_membus</title>
<g id="a_clust22"><a xlink:title="clk_domain=system.clk_domain&#10;eventq_index=0&#10;forward_latency=4&#10;frontend_latency=3&#10;header_latency=1&#10;max_outstanding_snoops=512&#10;max_routing_table_size=512&#10;point_of_coherency=true&#10;point_of_unification=true&#10;power_model=&#10;power_state=system.membus.power_state&#10;&#13;esponse_latency=2&#10;snoop_filter=system.membus.snoop_filter&#10;snoop_response_latency=4&#10;system=system&#10;use_default_range=false&#10;width=16">
<path fill="#6f798c" stroke="#000000" d="M235,-176C235,-176 471,-176 471,-176 477,-176 483,-182 483,-188 483,-188 483,-254 483,-254 483,-260 477,-266 471,-266 471,-266 235,-266 235,-266 229,-266 223,-260 223,-254 223,-254 223,-188 223,-188 223,-182 229,-176 235,-176"/>
<text text-anchor="middle" x="353" y="-250.8" font-family="Arial" font-size="14.00" fill="#000000">membus </text>
<text text-anchor="middle" x="353" y="-235.8" font-family="Arial" font-size="14.00" fill="#000000">: SystemXBar</text>
</a>
</g>
</g>
<g id="clust25" class="cluster">
<title>cluster_system_journal</title>
<g id="a_clust25"><a xlink:title="clk_domain=system.clk_domain&#10;eventq_index=0&#10;&#10;atency=100&#10;power_model=&#10;power_state=system.journal.power_state">
<path fill="#bab6ae" stroke="#000000" d="M566,-32C566,-32 788,-32 788,-32 794,-32 800,-38 800,-44 800,-44 800,-110 800,-110 800,-116 794,-122 788,-122 788,-122 566,-122 566,-122 560,-122 554,-116 554,-110 554,-110 554,-44 554,-44 554,-38 560,-32 566,-32"/>
<text text-anchor="middle" x="677" y="-106.8" font-family="Arial" font-size="14.00" fill="#000000">journal </text>
<text text-anchor="middle" x="677" y="-91.8" font-family="Arial" font-size="14.00" fill="#000000">: WALJournal</text>
</a>
</g>
</g>
<g id="clust27" class="cluster">
<title>cluster_system_mem_ctrl</title>
<g id="a_clust27"><a xlink:title="clk_domain=system.clk_domain&#10;command_window=10000&#10;disable_sanity_check=false&#10;dram=system.mem_ctrl.dram&#10;eventq_index=0&#10;mem_sched_policy=frfcfs&#10;min_reads_per_switch=16&#10;min_writes_per_switch=16&#10;power_model=&#10;power_state=system.mem_ctrl.power_state&#10;qos_policy=Null&#10;qos_priorities=1&#10;qos_priority_escalation=false&#10;qos_q_policy=fifo&#10;qos_requestors= &#160;&#160;&#160;&#160;&#160;&#160;&#160;&#160;&#160;&#160;&#160;&#160;&#160;&#160;&#10;qos_syncro_scheduler=false&#10;qos_turnaround_policy=Null&#10;static_backend_latency=10000&#10;static_frontend_latency=10000&#10;system=system&#10;write_high_thresh_perc=85&#10;write_low_thresh_perc=50">
<path fill="#bab6ae" stroke="#000000" d="M711,-176C711,-176 764,-176 764,-176 770,-176 776,-182 776,-188 776,-188 776,-254 776,-254 776,-260 770,-266 764,-266 764,-266 711,-266 711,-266 705,-266 699,-260 699,-254 699,-254 699,-188 699,-188 699,-182 705,-176 711,-176"/>
<text text-anchor="middle" x="737.5" y="-250.8" font-family="Arial" font-size="14.00" fill="#000000">mem_ctrl </text>
<text text-anchor="middle" x="737.5" y="-235.8" font-family="Arial" font-size="14.00" fill="#000000">: MemCtrl</text>
</a>
</g>
</g>
<!-- system_system_port -->
<g id="node1" class="node">
<title>system_system_port</title>
<path fill="#b6b8bc" stroke="#000000" d="M318.5,-350C318.5,-350 251.5,-350 251.5,-350 245.5,-350 239.5,-344 239.5,-338 239.5,-338 239.5,-326 239.5,-326 239.5,-320 245.5,-314 251.5,-314 251.5,-314 318.5,-314 318.5,-314 324.5,-314 330.5,-320 330.5,-326 330.5,-326 330.5,-338 330.5,-338 330.5,-344 324.5,-350 318.5,-350"/>
<text text-anchor="middle" x="285" y="-328.3" font-family="Arial" font-size="14.00" fill="#000000">system_port</text>
</g>
<!-- system_membus_cpu_side_ports -->
<g id="node7" class="node">
<title>system_membus_cpu_side_ports</title>
<path fill="#586070" stroke="#000000" d="M327,-220C327,-220 243,-220 243,-220 237,-220 231,-214 231,-208 231,-208 231,-196 231,-196 231,-190 237,-184 243,-184 243,-184 327,-184 327,-184 333,-184 339,-190 339,-196 339,-196 339,-208 339,-208 339,-214 333,-220 327,-220"/>
<text text-anchor="middle" x="285" y="-198.3" font-family="Arial" font-size="14.00" fill="#000000">cpu_side_ports</text>
</g>
<!-- system_system_port&#45;&gt;system_membus_cpu_side_ports -->
<g id="edge1" class="edge">
<title>system_system_port&#45;&gt;system_membus_cpu_side_ports</title>
<path fill="none" stroke="black" d="M285,-313.74C285,-292.36 285,-255.69 285,-230.44"/>
<polygon fill="black" stroke="black" points="288.5,-230.4 285,-220.4 281.5,-230.4 288.5,-230.4"/>
</g>
<!-- system_cpu_icache_port -->
<g id="node2" class="node">
<title>system_cpu_icache_port</title>
<path fill="#959ead" stroke="#000000" d="M106,-76C106,-76 44,-76 44,-76 38,-76 32,-70 32,-64 32,-64 32,-52 32,-52 32,-46 38,-40 44,-40 44,-40 106,-40 106,-40 112,-40 118,-46 118,-52 118,-52 118,-64 118,-64 118,-70 112,-76 106,-76"/>
<text text-anchor="middle" x="75" y="-54.3" font-family="Arial" font-size="14.00" fill="#000000">icache_port</text>
</g>
<!-- system_cpu_dcache_port -->
<g id="node3" class="node">
<title>system_cpu_dcache_port</title>
<path fill="#959ead" stroke="#000000" d="M215.5,-76C215.5,-76 148.5,-76 148.5,-76 142.5,-76 136.5,-70 136.5,-64 136.5,-64 136.5,-52 136.5,-52 136.5,-46 142.5,-40 148.5,-40 148.5,-40 215.5,-40 215.5,-40 221.5,-40 227.5,-46 227.5,-52 227.5,-52 227.5,-64 227.5,-64 227.5,-70 221.5,-76 215.5,-76"/>
<text text-anchor="middle" x="182" y="-54.3" font-family="Arial" font-size="14.00" fill="#000000">dcache_port</text>
</g>
<!-- system_cpu_interrupts_int_requestor -->
<g id="node4" class="node">
<title>system_cpu_interrupts_int_requestor</title>
<path fill="#94918b" stroke="#000000" d="M328.5,-76C328.5,-76 257.5,-76 257.5,-76 251.5,-76 245.5,-70 245.5,-64 245.5,-64 245.5,-52 245.5,-52 245.5,-46 251.5,-40 257.5,-40 257.5,-40 328.5,-40 328.5,-40 334.5,-40 340.5,-46 340.5,-52 340.5,-52 340.5,-64 340.5,-64 340.5,-70 334.5,-76 328.5,-76"/>
<text text-anchor="middle" x="293" y="-54.3" font-family="Arial" font-size="14.00" fill="#000000">int_requestor</text>
</g>
<!-- system_cpu_interrupts_int_responder -->
<g id="node5" class="node">
<title>system_cpu_interrupts_int_responder</title>
<path fill="#94918b" stroke="#000000" d="M445.5,-76C445.5,-76 370.5,-76 370.5,-76 364.5,-76 358.5,-70 358.5,-64 358.5,-64 358.5,-52 358.5,-52 358.5,-46 364.5,-40 370.5,-40 370.5,-40 445.5,-40 445.5,-40 451.5,-40 457.5,-46 457.5,-52 457.5,-52 457.5,-64 457.5,-64 457.5,-70 451.5,-76 445.5,-76"/>
<text text-anchor="middle" x="408" y="-54.3" font-family="Arial" font-size="14.00" fill="#000000">int_responder</text>
</g>
<!-- system_cpu_interrupts_pio -->
<g id="node6" class="node">
<title>system_cpu_interrupts_pio</title>
<path fill="#94918b" stroke="#000000" d="M518,-76C518,-76 488,-76 488,-76 482,-76 476,-70 476,-64 476,-64 476,-52 476,-52 476,-46 482,-40 488,-40 488,-40 518,-40 518,-40 524,-40 530,-46 530,-52 530,-52 530,-64 530,-64 530,-70 524,-76 518,-76"/>
<text text-anchor="middle" x="503" y="-54.3" font-family="Arial" font-size="14.00" fill="#000000">pio</text>
</g>
<!-- system_membus_cpu_side_ports&#45;&gt;system_cpu_icache_port -->
<g id="edge2" class="edge">
<title>system_membus_cpu_side_ports&#45;&gt;system_cpu_icache_port</title>
<path fill="none" stroke="black" d="M220.45,-193.24C183.83,-187.74 142.5,-179.32 128,-168 98.31,-144.83 84.23,-100.77 78.44,-76.36"/>
<polygon fill="black" stroke="black" points="220.22,-196.75 230.62,-194.72 221.23,-189.82 220.22,-196.75"/>
</g>
<!-- system_membus_cpu_side_ports&#45;&gt;system_cpu_dcache_port -->
<g id="edge3" class="edge">
<title>system_membus_cpu_side_ports&#45;&gt;system_cpu_dcache_port</title>
<path fill="none" stroke="black" d="M243.61,-177.97C239.77,-174.9 236.14,-171.58 233,-168 208.71,-140.39 193.72,-99.22 186.71,-76.19"/>
<polygon fill="black" stroke="black" points="241.57,-180.81 251.72,-183.87 245.69,-175.15 241.57,-180.81"/>
</g>
<!-- system_membus_cpu_side_ports&#45;&gt;system_cpu_interrupts_int_requestor -->
<g id="edge4" class="edge">
<title>system_membus_cpu_side_ports&#45;&gt;system_cpu_interrupts_int_requestor</title>
<path fill="none" stroke="black" d="M286.54,-173.68C288.16,-144.89 290.67,-100.42 292.03,-76.19"/>
<polygon fill="black" stroke="black" points="283.03,-173.69 285.96,-183.87 290.02,-174.08 283.03,-173.69"/>
</g>
<!-- system_membus_mem_side_ports -->
<g id="node8" class="node">
<title>system_membus_mem_side_ports</title>
<path fill="#586070" stroke="#000000" d="M463,-220C463,-220 369,-220 369,-220 363,-220 357,-214 357,-208 357,-208 357,-196 357,-196 357,-190 363,-184 369,-184 369,-184 463,-184 463,-184 469,-184 475,-190 475,-196 475,-196 475,-208 475,-208 475,-214 469,-220 463,-220"/>
<text text-anchor="middle" x="416" y="-198.3" font-family="Arial" font-size="14.00" fill="#000000">mem_side_ports</text>
</g>
<!-- system_membus_mem_side_ports&#45;&gt;system_cpu_interrupts_int_responder -->
<g id="edge6" class="edge">
<title>system_membus_mem_side_ports&#45;&gt;system_cpu_interrupts_int_responder</title>
<path fill="none" stroke="black" d="M415.04,-183.87C413.67,-159.67 411.17,-115.21 409.54,-86.39"/>
<polygon fill="black" stroke="black" points="413.03,-85.98 408.97,-76.19 406.04,-86.37 413.03,-85.98"/>
</g>
<!-- system_membus_mem_side_ports&#45;&gt;system_cpu_interrupts_pio -->
<g id="edge5" class="edge">
<title>system_membus_mem_side_ports&#45;&gt;system_cpu_interrupts_pio</title>
<path fill="none" stroke="black" d="M449.71,-183.86C456.12,-179.39 462.29,-174.09 467,-168 485.59,-143.93 494.81,-109.82 499.23,-86.19"/>
<polygon fill="black" stroke="black" points="502.71,-86.59 500.93,-76.15 495.81,-85.42 502.71,-86.59"/>
</g>
<!-- system_journal_cpu_side_port -->
<g id="node9" class="node">
<title>system_journal_cpu_side_port</title>
<path fill="#94918b" stroke="#000000" d="M651.5,-76C651.5,-76 574.5,-76 574.5,-76 568.5,-76 562.5,-70 562.5,-64 562.5,-64 562.5,-52 562.5,-52 562.5,-46 568.5,-40 574.5,-40 574.5,-40 651.5,-40 651.5,-40 657.5,-40 663.5,-46 663.5,-52 663.5,-52 663.5,-64 663.5,-64 663.5,-70 657.5,-76 651.5,-76"/>
<text text-anchor="middle" x="613" y="-54.3" font-family="Arial" font-size="14.00" fill="#000000">cpu_side_port</text>
</g>
<!-- system_membus_mem_side_ports&#45;&gt;system_journal_cpu_side_port -->
<g id="edge7" class="edge">
<title>system_membus_mem_side_ports&#45;&gt;system_journal_cpu_side_port</title>
<path fill="none" stroke="black" d="M475.06,-194.73C497.61,-190.09 522.56,-182.02 542,-168 570.95,-147.12 591.21,-110.49 602.48,-85.5"/>
<polygon fill="black" stroke="black" points="605.73,-86.8 606.49,-76.23 599.31,-84.02 605.73,-86.8"/>
</g>
<!-- system_journal_mem_side_port -->
<g id="node10" class="node">
<title>system_journal_mem_side_port</title>
<path fill="#94918b" stroke="#000000" d="M780.5,-76C780.5,-76 693.5,-76 693.5,-76 687.5,-76 681.5,-70 681.5,-64 681.5,-64 681.5,-52 681.5,-52 681.5,-46 687.5,-40 693.5,-40 693.5,-40 780.5,-40 780.5,-40 786.5,-40 792.5,-46 792.5,-52 792.5,-52 792.5,-64 792.5,-64 792.5,-70 786.5,-76 780.5,-76"/>
<text text-anchor="middle" x="737" y="-54.3" font-family="Arial" font-size="14.00" fill="#000000">mem_side_port</text>
</g>
<!-- system_mem_ctrl_port -->
<g id="node11" class="node">
<title>system_mem_ctrl_port</title>
<path fill="#94918b" stroke="#000000" d="M752,-220C752,-220 722,-220 722,-220 716,-220 710,-214 710,-208 710,-208 710,-196 710,-196 710,-190 716,-184 722,-184 722,-184 752,-184 752,-184 758,-184 764,-190 764,-196 764,-196 764,-208 764,-208 764,-214 758,-220 752,-220"/>
<text text-anchor="middle" x="737" y="-198.3" font-family="Arial" font-size="14.00" fill="#000000">port</text>
</g>
<!-- system_mem_ctrl_port&#45;&gt;system_journal_mem_side_port -->
<g id="edge8" class="edge">
<title>system_mem_ctrl_port&#45;&gt;system_journal_mem_side_port</title>
<path fill="none" stroke="black" d="M737,-173.68C737,-144.89 737,-100.42 737,-76.19"/>
<polygon fill="black" stroke="black" points="733.5,-173.87 737,-183.87 740.5,-173.87 733.5,-173.87"/>
</g>
</g>
</svg>
